<?xml version="1.0" encoding="utf-8"?>
<!-- Generator: Adobe Illustrator 19.2.1, SVG Export Plug-In . SVG Version: 6.00 Build 0)  -->
<svg version="1.1" id="Layer_1" xmlns="http://www.w3.org/2000/svg" xmlns:xlink="http://www.w3.org/1999/xlink" x="0px" y="0px"
	 viewBox="0 0 262.6 153.7" style="enable-background:new 0 0 262.6 153.7;" xml:space="preserve">
<style type="text/css">
	.st0{stroke:#000000;stroke-width:2;}
	.st1{fill:#F20017;stroke:#EF1216;stroke-width:2;}
</style>
<title>EvalNinja 1B_2</title>
<path class="st0" d="M1,151.8v-35.2h26.3v6.5H8.8v7.5h17v6h-17v8.6h19v6.5L1,151.8L1,151.8z"/>
<path class="st0" d="M55,126.3l-8.6,25.5h-7.8l-8.7-25.5h7.3l5.4,17.4h0.1l5.4-17.4L55,126.3L55,126.3z"/>
<path class="st0" d="M64.6,134.2h-7c0.2-3,1.4-5.2,3.7-6.6c2.5-1.4,5.4-2.1,8.3-2c2.8-0.1,5.5,0.4,8,1.6c2.2,1,3.2,2.9,3.2,5.7v13.2
	c0,1.1,0.1,2.2,0.2,3.3c0.1,0.8,0.3,1.6,0.7,2.4h-7.2c-0.3-0.8-0.4-1.6-0.5-2.5c-1.1,1.1-2.4,1.9-3.8,2.4c-1.5,0.5-3.1,0.8-4.8,0.8
	c-2.3,0.1-4.5-0.6-6.3-1.9c-1.7-1.4-2.6-3.5-2.4-5.7c0-2.6,0.8-4.5,2.3-5.6c1.9-1.2,4.1-2,6.3-2.2c0.6-0.1,1.6-0.2,2.9-0.4
	c1-0.1,2-0.3,3-0.5c0.6-0.2,1.2-0.4,1.7-0.9c0.4-0.4,0.7-1,0.6-1.6c0.1-1.1-0.3-2.1-1.2-2.8c-1-0.5-2.2-0.8-3.3-0.7
	c-1.2-0.1-2.3,0.3-3.3,0.9C65.1,132,64.6,133.1,64.6,134.2z M73.8,141.9v-2.6c-0.4,0.3-0.9,0.6-1.4,0.7c-0.8,0.2-1.5,0.3-2.3,0.4
	l-2.1,0.3c-1.1,0.2-2.1,0.6-3,1.2c-0.8,0.6-1.2,1.6-1.1,2.6c0,2.2,1.4,3.2,4.3,3.2c2.3,0,3.9-0.6,4.6-1.9
	C73.4,144.7,73.8,143.4,73.8,141.9L73.8,141.9z"/>
<path class="st0" d="M86.5,151.8v-35.2h7v35.2H86.5z"/>
<path class="st1" d="M99.7,151.8v-35.2h7.7l14.7,23.6h0.1v-23.6h7.2v35.2h-7.7L107,128.2h-0.1v23.6H99.7z"/>
<path class="st1" d="M136.2,151.8v-35.2h7.8v35.2H136.2z"/>
<path class="st1" d="M150.8,151.8v-35.2h7.7l14.7,23.6h0.1v-23.6h7.2v35.2h-7.7l-14.7-23.6H158v23.6H150.8L150.8,151.8z"/>
<path class="st1" d="M207.9,116.6v24.1c0,1.3-0.1,2.7-0.4,4c-0.3,1.3-0.8,2.6-1.6,3.8c-0.9,1.3-2.2,2.3-3.6,3
	c-1.9,0.8-4,1.2-6.1,1.2c-3,0.1-5.9-0.9-8.2-2.8c-2.2-1.8-3.4-4.6-3.4-8.1v-3.1h7v1.6c-0.1,1.5,0.3,3,1,4.4c0.8,1.1,2.2,1.7,3.5,1.5
	c1,0.1,2-0.2,2.8-0.9c0.6-0.5,1-1.2,1.1-2c0.1-1,0.2-1.9,0.2-2.9v-23.8H207.9L207.9,116.6z"/>
<path class="st1" d="M211,151.8l13.4-35.2h7.9l13.1,35.2h-8l-2.7-7.8h-13.2l-2.8,7.8L211,151.8L211,151.8z M228.2,125.3l-4.6,12.9
	h9.1l-4.4-12.9H228.2L228.2,125.3z"/>
<path d="M262.3,153.4h-3v-2.2h3V153.4z M252.9,140.8v2.1c-0.4,0-0.9,0.2-1.3,0.4c-0.4,0.2-0.7,0.5-0.9,0.8c-0.2,0.3-0.3,0.6-0.3,1
	c0,0.6,0.2,1.1,0.7,1.5c0.5,0.4,1.1,0.7,1.8,0.9c0.8,0.2,1.6,0.3,2.4,0.3c0.8,0,1.6-0.1,2.3-0.3c0.6-0.1,1.2-0.4,1.7-0.9
	c0.4-0.4,0.7-0.9,0.7-1.5c0-0.6-0.3-1.2-0.9-1.5c-0.7-0.4-1.5-0.7-2.3-0.7v-2.1c1,0.1,2,0.3,3,0.7c0.8,0.3,1.5,0.8,2,1.5
	c0.5,0.6,0.7,1.4,0.7,2.1c0,1-0.4,1.9-1,2.6c-0.7,0.8-1.6,1.4-2.6,1.7c-1.2,0.4-2.5,0.6-3.7,0.6c-1,0-2-0.1-2.9-0.3
	c-0.8-0.2-1.7-0.5-2.4-1c-0.6-0.4-1.2-0.9-1.6-1.5c-0.4-0.6-0.6-1.3-0.6-2c0-0.7,0.2-1.4,0.6-2c0.4-0.7,1-1.2,1.8-1.5
	C250.9,141.1,251.9,140.8,252.9,140.8L252.9,140.8z M255.2,139.6c-1,0-2-0.1-2.9-0.3c-0.8-0.2-1.7-0.5-2.4-1
	c-0.6-0.4-1.2-0.9-1.6-1.5c-0.8-1.3-0.8-2.8,0-4.1c0.4-0.6,0.9-1.2,1.6-1.5c0.7-0.5,1.5-0.8,2.4-1c1-0.2,2-0.3,3-0.3
	c1.3,0,2.5,0.2,3.7,0.6c1,0.3,1.9,0.9,2.6,1.7c1.3,1.5,1.3,3.7,0,5.2c-0.7,0.8-1.6,1.4-2.6,1.7C257.8,139.4,256.5,139.6,255.2,139.6
	L255.2,139.6z M255.2,137.4c0.8,0,1.6-0.1,2.3-0.3c0.6-0.1,1.2-0.4,1.7-0.9c0.8-0.8,0.9-2.1,0.1-3c0,0-0.1-0.1-0.1-0.1
	c-0.5-0.4-1.1-0.7-1.7-0.9c-0.8-0.2-1.5-0.3-2.3-0.3c-0.8,0-1.6,0.1-2.4,0.3c-0.7,0.1-1.3,0.4-1.8,0.9c-0.8,0.8-0.9,2.1-0.1,2.9
	c0,0,0.1,0.1,0.1,0.1c0.5,0.4,1.1,0.7,1.8,0.9C253.6,137.4,254.4,137.5,255.2,137.4L255.2,137.4z M262.2,128.4h-14.1v-3.1l9.7-2.3
	l0,0l-9.7-2.2v-3.1h14.1v2h-10l0,0l10,2.4v1.7l-9.9,2.4l0,0h9.9L262.2,128.4L262.2,128.4z"/>
</svg>
