<?xml version="1.0" encoding="utf-8"?>
<!-- Generator: Adobe Illustrator 19.2.1, SVG Export Plug-In . SVG Version: 6.00 Build 0)  -->
<svg version="1.1" id="Layer_1" xmlns="http://www.w3.org/2000/svg" xmlns:xlink="http://www.w3.org/1999/xlink" x="0px" y="0px"
	 viewBox="0 0 262.6 153.7" style="enable-background:new 0 0 262.6 153.7;" xml:space="preserve">
<style type="text/css">
	.st0{fill:#FDA96C;}
	.st1{fill:#FFFFFF;}
	.st2{fill:#00A0C6;}
</style>
<title>EvalNinja 1B_2</title>
<ellipse cx="132.1" cy="62.1" rx="52.7" ry="44.9"/>
<path class="st0" d="M174.5,67.8c0,5.6-4.5,10.2-10.1,10.2c0,0,0,0,0,0H101c-5.6,0-10.2-4.6-10.2-10.2l0,0V53.6
	c0-5.6,4.6-10.2,10.2-10.2l0,0h63.3c5.6,0,10.2,4.6,10.2,10.2l0,0V67.8L174.5,67.8z"/>
<path class="st1" d="M122.9,63.9c0,5.5-4.5,10-10,10h-4.4c-5.5,0-10-4.5-10-10v-8.6c0-5.5,4.5-10,10-10h4.4c5.5,0,10,4.5,10,10V63.9
	L122.9,63.9z"/>
<path class="st1" d="M169.4,64.5c0,5.5-4.5,10-10,10H155c-5.5,0-10-4.5-10-10v-8.6c0-5.5,4.5-10,10-10h4.4c5.5,0,10,4.5,10,10V64.5
	L169.4,64.5z"/>
<path d="M168.4,65.9c0,3.6-2.9,6.6-6.6,6.6c0,0,0,0,0,0h-2.9c-3.6,0-6.6-2.9-6.6-6.6c0,0,0,0,0,0v-5.6c0-3.6,2.9-6.6,6.6-6.6
	c0,0,0,0,0,0h2.9c3.6,0,6.6,2.9,6.6,6.6c0,0,0,0,0,0V65.9z"/>
<path class="st2" d="M159.2,67.7c0,1-0.8,1.8-1.8,1.8l0,0c-1,0-1.8-0.8-1.8-1.8V57.6c0-1,0.8-1.8,1.8-1.8l0,0c1,0,1.8,0.8,1.8,1.8
	L159.2,67.7L159.2,67.7z"/>
<circle class="st1" cx="154.2" cy="63.3" r="3.3"/>
<circle class="st1" cx="165.4" cy="63.2" r="1.8"/>
<path class="st1" d="M122.9,63.9c0,5.5-4.5,10-10,10h-4.4c-5.5,0-10-4.5-10-10v-8.6c0-5.5,4.5-10,10-10h4.4c5.5,0,10,4.5,10,10V63.9
	L122.9,63.9z"/>
<path d="M121.9,65.3c0,3.6-2.9,6.6-6.6,6.6c0,0,0,0,0,0h-2.9c-3.6,0-6.6-2.9-6.6-6.6c0,0,0,0,0,0v-5.6c0-3.6,2.9-6.6,6.5-6.6
	c0,0,0,0,0.1,0h2.9c3.6,0,6.6,2.9,6.6,6.6c0,0,0,0,0,0L121.9,65.3L121.9,65.3z"/>
<path class="st2" d="M112.8,67.1c0,1-0.8,1.8-1.8,1.8l0,0c-1,0-1.8-0.8-1.8-1.8V57c0-1,0.8-1.8,1.8-1.8l0,0c1,0,1.8,0.8,1.8,1.8
	V67.1z"/>
<circle class="st1" cx="107.7" cy="62.7" r="3.3"/>
<circle class="st1" cx="119" cy="62.5" r="1.8"/>
<path d="M105.5,26.3L66.2,5.4c0,0-1.8,28.6,4.8,31s23.8,2.4,23.8,2.4"/>
<path d="M107.9,28.1c0,0-6.6-29.8-10.7-28s-3,11.9-3,11.9l9.5,14.3"/>
</svg>
