<?xml version="1.0" encoding="utf-8"?>
<!-- Generator: Adobe Illustrator 16.0.0, SVG Export Plug-In . SVG Version: 6.00 Build 0)  -->
<!DOCTYPE svg PUBLIC "-//W3C//DTD SVG 1.1//EN" "http://www.w3.org/Graphics/SVG/1.1/DTD/svg11.dtd">
<svg version="1.1" id="Layer_1" xmlns="http://www.w3.org/2000/svg" xmlns:xlink="http://www.w3.org/1999/xlink" x="0px" y="0px"
	 width="360px" height="360px" viewBox="0 0 360 360" enable-background="new 0 0 360 360" xml:space="preserve">
<g>
	<path stroke="#000000" stroke-width="2" d="M51.541,231.821v-35.215h26.351v6.503H59.297v7.54H76.35v6.021H59.297v8.646h18.98
		v6.504H51.541z"/>
	<path stroke="#000000" stroke-width="2" d="M105.52,206.313l-8.639,25.508h-7.772l-8.735-25.508h7.339l5.39,17.415h0.096
		l5.366-17.415H105.52z"/>
	<path stroke="#000000" stroke-width="2" d="M115.13,214.189h-7.031c0.193-3.043,1.418-5.229,3.677-6.558
		c2.258-1.329,5.035-1.993,8.33-1.993c3.167,0,5.826,0.522,7.98,1.565c2.153,1.045,3.23,2.939,3.23,5.685v13.248
		c0,1.156,0.068,2.261,0.205,3.313c0.136,1.052,0.365,1.842,0.687,2.372h-7.105c-0.305-0.979-0.474-1.798-0.506-2.457
		c-1.045,1.093-2.32,1.891-3.823,2.396c-1.504,0.506-3.092,0.759-4.764,0.759c-2.557,0-4.643-0.649-6.259-1.949
		c-1.616-1.299-2.424-3.2-2.424-5.703c0-2.615,0.781-4.468,2.343-5.559c1.562-1.09,3.679-1.813,6.352-2.166
		c0.61-0.096,1.578-0.224,2.903-0.384c1.325-0.161,2.34-0.337,3.047-0.53c0.707-0.192,1.272-0.48,1.698-0.865
		c0.425-0.385,0.638-0.914,0.638-1.588c0-1.379-0.394-2.297-1.18-2.754c-0.787-0.457-1.903-0.686-3.348-0.686
		c-1.397,0-2.493,0.305-3.288,0.915C115.696,211.861,115.242,212.841,115.13,214.189z M124.307,221.953v-2.597
		c-0.37,0.32-0.839,0.562-1.409,0.722c-0.57,0.16-1.345,0.309-2.324,0.444c-0.98,0.137-1.678,0.237-2.096,0.301
		c-1.285,0.257-2.296,0.658-3.035,1.203c-0.739,0.545-1.108,1.395-1.108,2.549c0,2.165,1.437,3.248,4.312,3.248
		c2.345,0,3.874-0.622,4.589-1.864C123.95,224.716,124.307,223.381,124.307,221.953z"/>
	<path stroke="#000000" stroke-width="2" d="M136.953,231.821v-35.215h7.009v35.215H136.953z"/>
	<path fill="#F20017" stroke="#EF1216" stroke-width="2" d="M150.2,231.821v-35.215h7.708l14.693,23.629h0.096v-23.629h7.25v35.215
		h-7.731l-14.669-23.581h-0.096v23.581H150.2z"/>
	<path fill="#F20017" stroke="#EF1216" stroke-width="2" d="M186.765,231.821v-35.215h7.756v35.215H186.765z"/>
	<path fill="#F20017" stroke="#EF1216" stroke-width="2" d="M201.313,231.821v-35.215h7.708l14.692,23.629h0.097v-23.629h7.25
		v35.215h-7.732l-14.668-23.581h-0.097v23.581H201.313z"/>
	<path fill="#F20017" stroke="#EF1216" stroke-width="2" d="M258.495,196.606v24.11c0,1.397-0.133,2.746-0.397,4.047
		c-0.266,1.301-0.8,2.554-1.604,3.758c-0.804,1.204-2.005,2.196-3.604,2.975s-3.645,1.168-6.136,1.168
		c-3.231,0-5.972-0.919-8.223-2.758c-2.25-1.838-3.375-4.556-3.375-8.153v-3.059h7.009v1.595c0,1.885,0.324,3.335,0.973,4.35
		s1.821,1.522,3.519,1.522c1.249,0,2.174-0.285,2.774-0.856c0.601-0.57,0.969-1.241,1.105-2.013
		c0.136-0.771,0.204-1.735,0.204-2.893v-23.793H258.495z"/>
	<path fill="#F20017" stroke="#EF1216" stroke-width="2" d="M261.554,231.821l13.378-35.215h7.93l13.185,35.215h-8.051l-2.651-7.828
		h-13.185l-2.771,7.828H261.554z M278.764,205.277l-4.58,12.935h9.136l-4.436-12.935H278.764z"/>
</g>
<ellipse cx="182.675" cy="142.062" rx="52.679" ry="44.94"/>
<path fill="#FDA96C" d="M225,147.775c0,5.626-4.562,10.186-10.187,10.186h-63.3c-5.625,0-10.187-4.56-10.187-10.186v-14.188
	c0-5.626,4.562-10.187,10.187-10.187h63.3c5.625,0,10.187,4.561,10.187,10.187V147.775z"/>
<path fill="#FFFFFF" d="M173.473,143.86c0,5.523-4.478,10-10,10h-4.405c-5.522,0-10-4.477-10-10v-8.571c0-5.523,4.478-10,10-10
	h4.405c5.522,0,10,4.477,10,10V143.86z"/>
<path fill="#FFFFFF" d="M219.901,144.455c0,5.523-4.478,10-10,10h-4.405c-5.522,0-10-4.477-10-10v-8.571c0-5.523,4.478-10,10-10
	h4.405c5.522,0,10,4.477,10,10V144.455z"/>
<path d="M218.901,145.87c0,3.637-2.948,6.585-6.585,6.585h-2.901c-3.637,0-6.585-2.948-6.585-6.585v-5.645
	c0-3.637,2.948-6.585,6.585-6.585h2.901c3.637,0,6.585,2.948,6.585,6.585V145.87z"/>
<path fill="#00A0C6" d="M209.758,147.717c0,0.986-0.8,1.786-1.785,1.786l0,0c-0.986,0-1.786-0.799-1.786-1.786v-10.119
	c0-0.986,0.8-1.786,1.786-1.786l0,0c0.985,0,1.785,0.799,1.785,1.786V147.717z"/>
<circle fill="#FFFFFF" cx="204.699" cy="143.253" r="3.274"/>
<circle fill="#FFFFFF" cx="215.925" cy="143.146" r="1.786"/>
<path fill="#FFFFFF" d="M173.474,143.86c0,5.523-4.478,10-10,10h-4.405c-5.522,0-10-4.477-10-10v-8.571c0-5.523,4.478-10,10-10
	h4.405c5.522,0,10,4.477,10,10V143.86z"/>
<path d="M172.474,145.275c0,3.637-2.948,6.585-6.585,6.585h-2.901c-3.637,0-6.585-2.948-6.585-6.585v-5.645
	c0-3.637,2.948-6.585,6.585-6.585h2.901c3.637,0,6.585,2.948,6.585,6.585V145.275z"/>
<path fill="#00A0C6" d="M163.33,147.122c0,0.986-0.8,1.786-1.785,1.786l0,0c-0.986,0-1.786-0.799-1.786-1.786v-10.119
	c0-0.986,0.8-1.786,1.786-1.786l0,0c0.985,0,1.785,0.799,1.785,1.786V147.122z"/>
<circle fill="#FFFFFF" cx="158.271" cy="142.658" r="3.274"/>
<circle fill="#FFFFFF" cx="169.497" cy="142.551" r="1.786"/>
<path d="M156.022,106.265l-39.286-20.833c0,0-1.786,28.572,4.762,30.953s23.81,2.381,23.81,2.381"/>
<path d="M158.403,108.051c0,0-6.549-29.762-10.715-27.976s-2.976,11.905-2.976,11.905l9.523,14.286"/>
<path d="M312.8,233.41h-3.047v-2.176h3.047V233.41z M303.41,220.75v2.101c-0.465,0.045-0.886,0.171-1.264,0.378
	c-0.378,0.208-0.675,0.468-0.891,0.78c-0.217,0.313-0.324,0.646-0.324,0.997c0,0.617,0.224,1.127,0.673,1.53
	c0.448,0.402,1.039,0.696,1.771,0.881c0.733,0.185,1.538,0.277,2.416,0.277c0.839,0,1.615-0.091,2.328-0.273
	c0.714-0.183,1.293-0.477,1.738-0.882s0.668-0.916,0.668-1.533c0-0.64-0.287-1.151-0.861-1.534
	c-0.574-0.382-1.343-0.616-2.305-0.702v-2.107c1.153,0.072,2.166,0.299,3.039,0.679c0.873,0.381,1.548,0.889,2.024,1.521
	c0.477,0.634,0.715,1.349,0.715,2.146c0,0.991-0.324,1.855-0.973,2.593c-0.647,0.736-1.529,1.299-2.646,1.687
	c-1.115,0.388-2.36,0.581-3.733,0.581c-1.045,0-2.021-0.109-2.931-0.327c-0.909-0.219-1.704-0.539-2.385-0.96
	c-0.68-0.422-1.209-0.937-1.586-1.545c-0.378-0.608-0.566-1.284-0.566-2.028c0-0.726,0.2-1.398,0.601-2.018
	c0.399-0.62,0.983-1.127,1.751-1.521C301.439,221.075,302.353,220.835,303.41,220.75z M305.787,219.614
	c-1.045,0-2.021-0.109-2.931-0.327c-0.909-0.219-1.704-0.539-2.385-0.96c-0.68-0.422-1.209-0.937-1.586-1.545
	c-0.378-0.608-0.566-1.284-0.566-2.028c0-0.748,0.19-1.427,0.571-2.038c0.38-0.61,0.904-1.123,1.571-1.538
	c0.668-0.414,1.461-0.732,2.38-0.953s1.9-0.331,2.945-0.331c1.373,0,2.618,0.195,3.733,0.585c1.116,0.39,1.998,0.952,2.646,1.687
	c0.648,0.734,0.973,1.598,0.973,2.589c0,0.992-0.324,1.855-0.973,2.593c-0.647,0.736-1.529,1.299-2.646,1.687
	C308.405,219.421,307.16,219.614,305.787,219.614z M305.792,217.439c0.839,0,1.615-0.091,2.328-0.273
	c0.714-0.183,1.293-0.477,1.738-0.882s0.668-0.916,0.668-1.533s-0.223-1.127-0.668-1.53s-1.024-0.696-1.738-0.878
	c-0.713-0.183-1.489-0.274-2.328-0.274c-0.878,0-1.683,0.093-2.416,0.277c-0.732,0.185-1.323,0.477-1.771,0.875
	c-0.449,0.398-0.673,0.908-0.673,1.53c0,0.617,0.224,1.127,0.673,1.53c0.448,0.402,1.039,0.696,1.771,0.881
	C304.109,217.347,304.914,217.439,305.792,217.439z M312.8,208.421h-14.142v-3.061l9.721-2.311v-0.026l-9.721-2.189v-3.054H312.8
	v2.034h-10.021v0.026l10.021,2.419v1.675l-9.924,2.426v0.026h9.924V208.421z"/>
<path d="M53.586,246.366l-2.88-8.783h1.238l1.369,4.326c0.365,1.187,0.69,2.268,0.938,3.284h0.026
	c0.248-1.017,0.6-2.124,1.003-3.271l1.486-4.34h1.212l-3.141,8.783H53.586z M59.608,238.899c-0.43,0-0.717-0.339-0.717-0.743
	c0-0.403,0.3-0.729,0.743-0.729c0.443,0,0.73,0.326,0.73,0.729c0,0.404-0.287,0.743-0.743,0.743H59.608z M59.061,246.366v-6.307
	h1.147v6.307H59.061z M62.124,242.027c0-0.743-0.013-1.382-0.052-1.968h1.003l0.052,1.237h0.039c0.287-0.847,0.99-1.381,1.759-1.381
	c0.117,0,0.208,0.013,0.313,0.039v1.068c-0.13-0.013-0.248-0.026-0.404-0.026c-0.808,0-1.381,0.613-1.538,1.46
	c-0.026,0.169-0.039,0.352-0.039,0.547v3.362H62.11L62.124,242.027z M68.067,238.548v1.512h1.642v0.873h-1.642v3.4
	c0,0.782,0.222,1.226,0.86,1.226c0.313,0,0.496-0.026,0.665-0.078l0.052,0.873c-0.221,0.078-0.573,0.156-1.016,0.156
	c-0.535,0-0.964-0.183-1.238-0.482c-0.313-0.352-0.443-0.912-0.443-1.655v-3.439h-0.978v-0.873h0.978v-1.16L68.067,238.548z
	 M76.277,244.646c0,0.651,0.013,1.225,0.052,1.72h-1.016l-0.065-1.029h-0.026c-0.287,0.508-0.964,1.173-2.085,1.173
	c-0.99,0-2.176-0.561-2.176-2.763v-3.688h1.147v3.479c0,1.199,0.378,2.021,1.407,2.021c0.769,0,1.303-0.534,1.512-1.056
	c0.065-0.156,0.104-0.365,0.104-0.587v-3.856h1.147V244.646z M82.625,244.854c0,0.548,0.026,1.082,0.091,1.512h-1.029l-0.104-0.795
	h-0.039c-0.339,0.495-1.03,0.938-1.929,0.938c-1.277,0-1.929-0.899-1.929-1.812c0-1.524,1.355-2.358,3.792-2.346v-0.13
	c0-0.521-0.143-1.473-1.434-1.46c-0.599,0-1.211,0.17-1.655,0.47l-0.261-0.77c0.521-0.325,1.291-0.547,2.085-0.547
	c1.942,0,2.411,1.316,2.411,2.58V244.854z M81.505,243.147c-1.251-0.026-2.671,0.195-2.671,1.421c0,0.756,0.495,1.094,1.068,1.094
	c0.834,0,1.368-0.521,1.551-1.055c0.039-0.117,0.052-0.248,0.052-0.365V243.147z M84.464,237.114h1.147v9.252h-1.147V237.114z
	 M87.514,237.114h1.147v9.252h-1.147V237.114z M90.981,240.06l1.368,3.727c0.157,0.417,0.313,0.912,0.417,1.29h0.026
	c0.117-0.378,0.248-0.86,0.404-1.316l1.251-3.7h1.212l-1.72,4.495c-0.821,2.163-1.381,3.271-2.163,3.962
	c-0.573,0.481-1.121,0.678-1.407,0.729l-0.287-0.964c0.287-0.079,0.665-0.261,1.003-0.561c0.313-0.248,0.69-0.69,0.964-1.277
	c0.052-0.117,0.091-0.195,0.091-0.273c0-0.065-0.026-0.156-0.091-0.287l-2.32-5.824H90.981z M104.04,242.248h-3.401v3.167h3.805
	v0.951h-4.952v-8.783h4.756v0.951h-3.609v2.776h3.401V242.248z M106.218,240.06l1.238,3.531c0.208,0.586,0.378,1.107,0.508,1.629
	h0.039c0.143-0.521,0.326-1.043,0.534-1.629l1.225-3.531h1.199l-2.476,6.307h-1.095l-2.397-6.307H106.218z M116.305,244.854
	c0,0.548,0.026,1.082,0.091,1.512h-1.029l-0.104-0.795h-0.039c-0.339,0.495-1.03,0.938-1.929,0.938
	c-1.277,0-1.929-0.899-1.929-1.812c0-1.524,1.355-2.358,3.792-2.346v-0.13c0-0.521-0.143-1.473-1.434-1.46
	c-0.599,0-1.211,0.17-1.655,0.47l-0.261-0.77c0.521-0.325,1.291-0.547,2.085-0.547c1.942,0,2.411,1.316,2.411,2.58V244.854z
	 M115.185,243.147c-1.251-0.026-2.671,0.195-2.671,1.421c0,0.756,0.495,1.094,1.068,1.094c0.834,0,1.368-0.521,1.551-1.055
	c0.039-0.117,0.052-0.248,0.052-0.365V243.147z M118.144,237.114h1.147v9.252h-1.147V237.114z M126.472,244.646
	c0,0.651,0.013,1.225,0.052,1.72h-1.016l-0.065-1.029h-0.026c-0.287,0.508-0.964,1.173-2.085,1.173c-0.99,0-2.176-0.561-2.176-2.763
	v-3.688h1.147v3.479c0,1.199,0.378,2.021,1.407,2.021c0.769,0,1.303-0.534,1.512-1.056c0.065-0.156,0.104-0.365,0.104-0.587v-3.856
	h1.147V244.646z M132.82,244.854c0,0.548,0.026,1.082,0.091,1.512h-1.029l-0.104-0.795h-0.039c-0.339,0.495-1.03,0.938-1.929,0.938
	c-1.277,0-1.929-0.899-1.929-1.812c0-1.524,1.355-2.358,3.792-2.346v-0.13c0-0.521-0.143-1.473-1.434-1.46
	c-0.599,0-1.211,0.17-1.655,0.47l-0.261-0.77c0.521-0.325,1.291-0.547,2.085-0.547c1.942,0,2.411,1.316,2.411,2.58V244.854z
	 M131.699,243.147c-1.251-0.026-2.671,0.195-2.671,1.421c0,0.756,0.495,1.094,1.068,1.094c0.834,0,1.368-0.521,1.551-1.055
	c0.039-0.117,0.052-0.248,0.052-0.365V243.147z M135.987,238.548v1.512h1.642v0.873h-1.642v3.4c0,0.782,0.222,1.226,0.86,1.226
	c0.313,0,0.496-0.026,0.665-0.078l0.052,0.873c-0.221,0.078-0.573,0.156-1.016,0.156c-0.535,0-0.964-0.183-1.238-0.482
	c-0.313-0.352-0.443-0.912-0.443-1.655v-3.439h-0.978v-0.873h0.978v-1.16L135.987,238.548z M139.494,243.408
	c0.026,1.551,1.003,2.189,2.15,2.189c0.821,0,1.329-0.144,1.746-0.313l0.208,0.809c-0.404,0.183-1.107,0.403-2.111,0.403
	c-1.929,0-3.102-1.29-3.102-3.179c0-1.916,1.134-3.415,2.971-3.415c2.059,0,2.593,1.812,2.593,2.972
	c0,0.234-0.013,0.417-0.039,0.547L139.494,243.408z M142.843,242.587c0.013-0.717-0.3-1.863-1.577-1.863
	c-1.173,0-1.668,1.068-1.759,1.863H142.843z M154.299,246.093c-0.404,0.208-1.251,0.417-2.319,0.417
	c-2.476,0-4.326-1.563-4.326-4.457c0-2.763,1.863-4.612,4.587-4.612c1.082,0,1.785,0.234,2.085,0.391l-0.287,0.925
	c-0.417-0.208-1.03-0.364-1.759-0.364c-2.059,0-3.427,1.315-3.427,3.622c0,2.163,1.238,3.531,3.362,3.531
	c0.704,0,1.408-0.143,1.864-0.364L154.299,246.093z M158.093,246.51c-1.694,0-3.023-1.251-3.023-3.245
	c0-2.11,1.395-3.349,3.127-3.349c1.812,0,3.036,1.316,3.036,3.231c0,2.346-1.629,3.362-3.127,3.362H158.093z M158.132,245.649
	c1.094,0,1.916-1.029,1.916-2.463c0-1.068-0.534-2.41-1.89-2.41c-1.342,0-1.929,1.251-1.929,2.449c0,1.382,0.782,2.424,1.89,2.424
	H158.132z M162.682,241.767c0-0.665-0.026-1.187-0.052-1.707h1.003l0.052,1.016h0.039c0.352-0.599,0.938-1.159,1.994-1.159
	c0.847,0,1.499,0.521,1.772,1.264h0.026c0.196-0.364,0.456-0.625,0.717-0.82c0.378-0.287,0.782-0.443,1.381-0.443
	c0.847,0,2.085,0.547,2.085,2.736v3.714h-1.121v-3.57c0-1.226-0.456-1.941-1.368-1.941c-0.665,0-1.16,0.481-1.369,1.029
	c-0.052,0.169-0.091,0.378-0.091,0.573v3.909h-1.121v-3.779c0-1.017-0.443-1.732-1.316-1.732c-0.704,0-1.238,0.573-1.42,1.146
	c-0.065,0.169-0.091,0.364-0.091,0.561v3.805h-1.121V241.767z M173.552,242.118c0-0.808-0.013-1.46-0.052-2.059h1.03l0.065,1.081
	h0.026c0.456-0.781,1.212-1.225,2.228-1.225c1.538,0,2.684,1.29,2.684,3.205c0,2.268-1.394,3.389-2.866,3.389
	c-0.847,0-1.564-0.365-1.942-0.99h-0.026v3.427h-1.147V242.118z M174.699,243.799c0,0.156,0.013,0.326,0.052,0.47
	c0.196,0.795,0.899,1.342,1.707,1.342c1.212,0,1.916-0.99,1.916-2.437c0-1.265-0.652-2.346-1.864-2.346
	c-0.782,0-1.524,0.547-1.746,1.407c-0.026,0.156-0.065,0.326-0.065,0.469V243.799z M186.246,244.646c0,0.651,0.014,1.225,0.053,1.72
	h-1.017l-0.065-1.029h-0.026c-0.286,0.508-0.964,1.173-2.085,1.173c-0.99,0-2.176-0.561-2.176-2.763v-3.688h1.146v3.479
	c0,1.199,0.378,2.021,1.407,2.021c0.77,0,1.304-0.534,1.512-1.056c0.065-0.156,0.104-0.365,0.104-0.587v-3.856h1.146V244.646z
	 M189.532,238.548v1.512h1.642v0.873h-1.642v3.4c0,0.782,0.221,1.226,0.859,1.226c0.313,0,0.495-0.026,0.665-0.078l0.052,0.873
	c-0.222,0.078-0.573,0.156-1.017,0.156c-0.534,0-0.964-0.183-1.237-0.482c-0.313-0.352-0.443-0.912-0.443-1.655v-3.439h-0.978
	v-0.873h0.978v-1.16L189.532,238.548z M193.038,243.408c0.026,1.551,1.004,2.189,2.15,2.189c0.821,0,1.329-0.144,1.746-0.313
	l0.209,0.809c-0.404,0.183-1.108,0.403-2.111,0.403c-1.929,0-3.102-1.29-3.102-3.179c0-1.916,1.134-3.415,2.971-3.415
	c2.06,0,2.594,1.812,2.594,2.972c0,0.234-0.013,0.417-0.039,0.547L193.038,243.408z M196.388,242.587
	c0.013-0.717-0.3-1.863-1.577-1.863c-1.173,0-1.668,1.068-1.759,1.863H196.388z M198.93,242.027c0-0.743-0.013-1.382-0.052-1.968
	h1.004l0.052,1.237h0.039c0.287-0.847,0.99-1.381,1.759-1.381c0.117,0,0.209,0.013,0.313,0.039v1.068
	c-0.131-0.013-0.248-0.026-0.404-0.026c-0.808,0-1.381,0.613-1.538,1.46c-0.025,0.169-0.039,0.352-0.039,0.547v3.362h-1.146
	L198.93,242.027z M205.838,244.985c0.509,0.325,1.238,0.573,2.021,0.573c1.159,0,1.837-0.6,1.837-1.499
	c0-0.808-0.469-1.29-1.655-1.733c-1.433-0.521-2.319-1.276-2.319-2.502c0-1.368,1.134-2.384,2.841-2.384
	c0.887,0,1.551,0.208,1.929,0.43l-0.313,0.925c-0.273-0.169-0.86-0.417-1.655-0.417c-1.198,0-1.655,0.717-1.655,1.316
	c0,0.821,0.535,1.225,1.747,1.694c1.485,0.586,2.228,1.29,2.228,2.58c0,1.355-0.99,2.541-3.062,2.541
	c-0.848,0-1.772-0.261-2.242-0.573L205.838,244.985z M213.098,243.408c0.026,1.551,1.004,2.189,2.15,2.189
	c0.821,0,1.329-0.144,1.746-0.313l0.209,0.809c-0.404,0.183-1.108,0.403-2.111,0.403c-1.929,0-3.102-1.29-3.102-3.179
	c0-1.916,1.134-3.415,2.971-3.415c2.06,0,2.594,1.812,2.594,2.972c0,0.234-0.014,0.417-0.039,0.547L213.098,243.408z
	 M216.447,242.587c0.013-0.717-0.3-1.863-1.577-1.863c-1.173,0-1.668,1.068-1.759,1.863H216.447z M223.473,246.145
	c-0.3,0.144-0.965,0.365-1.812,0.365c-1.902,0-3.141-1.29-3.141-3.231c0-1.942,1.329-3.362,3.388-3.362
	c0.678,0,1.277,0.169,1.59,0.339l-0.26,0.873c-0.274-0.144-0.704-0.3-1.33-0.3c-1.446,0-2.228,1.081-2.228,2.397
	c0,1.46,0.938,2.358,2.188,2.358c0.652,0,1.082-0.156,1.408-0.3L223.473,246.145z M230.093,244.646c0,0.651,0.014,1.225,0.053,1.72
	h-1.017l-0.065-1.029h-0.026c-0.286,0.508-0.964,1.173-2.085,1.173c-0.99,0-2.176-0.561-2.176-2.763v-3.688h1.146v3.479
	c0,1.199,0.378,2.021,1.407,2.021c0.77,0,1.304-0.534,1.512-1.056c0.065-0.156,0.104-0.365,0.104-0.587v-3.856h1.146V244.646z
	 M232.01,242.027c0-0.743-0.013-1.382-0.052-1.968h1.004l0.052,1.237h0.039c0.287-0.847,0.99-1.381,1.759-1.381
	c0.117,0,0.209,0.013,0.313,0.039v1.068c-0.131-0.013-0.248-0.026-0.404-0.026c-0.808,0-1.381,0.613-1.538,1.46
	c-0.025,0.169-0.039,0.352-0.039,0.547v3.362h-1.146L232.01,242.027z M236.859,238.899c-0.431,0-0.717-0.339-0.717-0.743
	c0-0.403,0.3-0.729,0.742-0.729c0.443,0,0.729,0.326,0.729,0.729c0,0.404-0.286,0.743-0.742,0.743H236.859z M236.312,246.366v-6.307
	h1.146v6.307H236.312z M240.743,238.548v1.512h1.642v0.873h-1.642v3.4c0,0.782,0.221,1.226,0.859,1.226
	c0.313,0,0.495-0.026,0.665-0.078l0.052,0.873c-0.222,0.078-0.573,0.156-1.017,0.156c-0.534,0-0.964-0.183-1.237-0.482
	c-0.313-0.352-0.443-0.912-0.443-1.655v-3.439h-0.978v-0.873h0.978v-1.16L240.743,238.548z M244.21,240.06l1.368,3.727
	c0.156,0.417,0.313,0.912,0.417,1.29h0.026c0.117-0.378,0.247-0.86,0.404-1.316l1.251-3.7h1.212l-1.721,4.495
	c-0.821,2.163-1.381,3.271-2.163,3.962c-0.573,0.481-1.12,0.678-1.407,0.729l-0.287-0.964c0.287-0.079,0.665-0.261,1.004-0.561
	c0.313-0.248,0.69-0.69,0.964-1.277c0.053-0.117,0.092-0.195,0.092-0.273c0-0.065-0.026-0.156-0.092-0.287l-2.319-5.824H244.21z
	 M258.859,246.093c-0.404,0.208-1.251,0.417-2.32,0.417c-2.476,0-4.326-1.563-4.326-4.457c0-2.763,1.864-4.612,4.587-4.612
	c1.082,0,1.785,0.234,2.085,0.391l-0.286,0.925c-0.417-0.208-1.029-0.364-1.76-0.364c-2.059,0-3.427,1.315-3.427,3.622
	c0,2.163,1.238,3.531,3.362,3.531c0.703,0,1.407-0.143,1.863-0.364L258.859,246.093z M264.607,244.854
	c0,0.548,0.026,1.082,0.092,1.512h-1.029l-0.104-0.795h-0.039c-0.339,0.495-1.029,0.938-1.929,0.938
	c-1.277,0-1.929-0.899-1.929-1.812c0-1.524,1.355-2.358,3.792-2.346v-0.13c0-0.521-0.144-1.473-1.434-1.46
	c-0.6,0-1.212,0.17-1.654,0.47l-0.261-0.77c0.521-0.325,1.29-0.547,2.085-0.547c1.941,0,2.41,1.316,2.41,2.58V244.854z
	 M263.487,243.147c-1.251-0.026-2.672,0.195-2.672,1.421c0,0.756,0.495,1.094,1.068,1.094c0.834,0,1.369-0.521,1.551-1.055
	c0.039-0.117,0.053-0.248,0.053-0.365V243.147z M266.446,241.767c0-0.665-0.013-1.187-0.052-1.707h1.017l0.064,1.029h0.026
	c0.313-0.587,1.042-1.173,2.085-1.173c0.873,0,2.229,0.521,2.229,2.685v3.766h-1.147v-3.636c0-1.017-0.377-1.876-1.459-1.876
	c-0.743,0-1.329,0.534-1.538,1.173c-0.052,0.143-0.078,0.352-0.078,0.534v3.805h-1.146V241.767z M279.128,237.114v7.623
	c0,0.561,0.013,1.199,0.052,1.629h-1.029l-0.052-1.095h-0.026c-0.352,0.704-1.107,1.238-2.137,1.238
	c-1.525,0-2.711-1.29-2.711-3.206c-0.013-2.11,1.303-3.388,2.828-3.388c0.977,0,1.629,0.456,1.902,0.951h0.026v-3.753H279.128z
	 M277.981,242.626c0-0.156-0.014-0.339-0.053-0.495c-0.169-0.717-0.795-1.315-1.655-1.315c-1.186,0-1.889,1.042-1.889,2.423
	c0,1.291,0.639,2.346,1.863,2.346c0.769,0,1.473-0.521,1.681-1.368c0.039-0.156,0.053-0.313,0.053-0.495V242.626z M281.579,238.899
	c-0.431,0-0.717-0.339-0.717-0.743c0-0.403,0.3-0.729,0.742-0.729c0.443,0,0.729,0.326,0.729,0.729c0,0.404-0.286,0.743-0.742,0.743
	H281.579z M281.031,246.366v-6.307h1.146v6.307H281.031z M289.529,237.114v7.623c0,0.561,0.013,1.199,0.052,1.629h-1.029
	l-0.052-1.095h-0.026c-0.352,0.704-1.107,1.238-2.137,1.238c-1.525,0-2.711-1.29-2.711-3.206c-0.013-2.11,1.303-3.388,2.828-3.388
	c0.977,0,1.629,0.456,1.902,0.951h0.026v-3.753H289.529z M288.383,242.626c0-0.156-0.014-0.339-0.053-0.495
	c-0.169-0.717-0.795-1.315-1.654-1.315c-1.187,0-1.89,1.042-1.89,2.423c0,1.291,0.638,2.346,1.863,2.346
	c0.769,0,1.473-0.521,1.681-1.368c0.039-0.156,0.053-0.313,0.053-0.495V242.626z M295.876,244.854c0,0.548,0.026,1.082,0.092,1.512
	h-1.029l-0.104-0.795h-0.039c-0.339,0.495-1.029,0.938-1.929,0.938c-1.277,0-1.929-0.899-1.929-1.812
	c0-1.524,1.355-2.358,3.792-2.346v-0.13c0-0.521-0.144-1.473-1.434-1.46c-0.6,0-1.212,0.17-1.654,0.47l-0.261-0.77
	c0.521-0.325,1.29-0.547,2.085-0.547c1.941,0,2.41,1.316,2.41,2.58V244.854z M294.756,243.147c-1.251-0.026-2.672,0.195-2.672,1.421
	c0,0.756,0.495,1.094,1.068,1.094c0.834,0,1.369-0.521,1.551-1.055c0.039-0.117,0.053-0.248,0.053-0.365V243.147z M299.045,238.548
	v1.512h1.642v0.873h-1.642v3.4c0,0.782,0.221,1.226,0.859,1.226c0.313,0,0.495-0.026,0.665-0.078l0.052,0.873
	c-0.222,0.078-0.573,0.156-1.017,0.156c-0.534,0-0.964-0.183-1.237-0.482c-0.313-0.352-0.443-0.912-0.443-1.655v-3.439h-0.978
	v-0.873h0.978v-1.16L299.045,238.548z M302.551,243.408c0.026,1.551,1.004,2.189,2.15,2.189c0.821,0,1.329-0.144,1.746-0.313
	l0.209,0.809c-0.404,0.183-1.108,0.403-2.111,0.403c-1.929,0-3.102-1.29-3.102-3.179c0-1.916,1.134-3.415,2.971-3.415
	c2.06,0,2.594,1.812,2.594,2.972c0,0.234-0.014,0.417-0.039,0.547L302.551,243.408z M305.9,242.587
	c0.013-0.717-0.3-1.863-1.577-1.863c-1.173,0-1.668,1.068-1.759,1.863H305.9z M308.273,245.206c0.352,0.209,0.951,0.443,1.524,0.443
	c0.821,0,1.212-0.404,1.212-0.938c0-0.547-0.325-0.847-1.159-1.159c-1.147-0.417-1.682-1.029-1.682-1.785
	c0-1.017,0.834-1.851,2.177-1.851c0.638,0,1.198,0.169,1.537,0.391l-0.273,0.821c-0.248-0.144-0.704-0.365-1.29-0.365
	c-0.678,0-1.043,0.392-1.043,0.86c0,0.534,0.365,0.769,1.187,1.081c1.081,0.404,1.654,0.952,1.654,1.903
	c0,1.12-0.873,1.902-2.346,1.902c-0.69,0-1.329-0.183-1.771-0.443L308.273,245.206z"/>
</svg>
